<svg xmlns="http://www.w3.org/2000/svg" width="196.246" height="34.161" viewBox="0 0 196.246 34.161">
  <g id="Logo-horizontal_-_nosquish" data-name="Logo-horizontal - nosquish" transform="translate(-58.24 -234.4)">
    <g id="XMLID_3_" transform="translate(114.014 239.991)">
      <path id="XMLID_7_" d="M206.8,272.783a5.934,5.934,0,0,1-3.167-.782,5.064,5.064,0,0,1-1.916-2.228,9.452,9.452,0,0,1-.782-3.362l1.955-.586a12.451,12.451,0,0,0,.508,2.619,3.841,3.841,0,0,0,1.173,1.837,3.3,3.3,0,0,0,2.228.665,2.966,2.966,0,0,0,3.284-3.4,4.671,4.671,0,0,0-.782-2.7,14.005,14.005,0,0,0-2.111-2.385l-4.144-3.988a7.125,7.125,0,0,1-1.642-2.228,5.97,5.97,0,0,1-.508-2.5,4.778,4.778,0,0,1,1.447-3.753,5.645,5.645,0,0,1,3.871-1.29,7.866,7.866,0,0,1,2.228.313,4.034,4.034,0,0,1,1.72,1.016,5.06,5.06,0,0,1,1.134,1.838,10.258,10.258,0,0,1,.547,2.737l-1.877.508a10.925,10.925,0,0,0-.469-2.541,3.085,3.085,0,0,0-1.134-1.6,4.266,4.266,0,0,0-4.5.2,2.844,2.844,0,0,0-.938,2.346,4.1,4.1,0,0,0,.352,1.72,5.688,5.688,0,0,0,1.29,1.681l4.144,3.91a15.61,15.61,0,0,1,2.424,2.893,6.654,6.654,0,0,1,1.016,3.6,6.294,6.294,0,0,1-.665,2.971,4.72,4.72,0,0,1-1.916,1.8A4.981,4.981,0,0,1,206.8,272.783Z" transform="translate(-200.9 -248.7)" fill="#0d426a"/>
      <path id="XMLID_9_" d="M242.9,273V249.5h5.63a6.14,6.14,0,0,1,3.323.782,4.19,4.19,0,0,1,1.72,2.189,9.351,9.351,0,0,1,.508,3.284,8.622,8.622,0,0,1-.547,3.049,4.516,4.516,0,0,1-1.759,2.228,5.787,5.787,0,0,1-3.245.821h-3.44v11.1H242.9Zm2.228-12.745h2.815a5.517,5.517,0,0,0,2.307-.43,2.547,2.547,0,0,0,1.29-1.407,7.2,7.2,0,0,0,.391-2.659,8.983,8.983,0,0,0-.352-2.815,2.3,2.3,0,0,0-1.212-1.407,5.8,5.8,0,0,0-2.424-.391h-2.854v9.109Z" transform="translate(-226.48 -249.187)" fill="#0d426a"/>
      <path id="XMLID_12_" d="M289.06,272.966a6.63,6.63,0,0,1-3.675-.9,4.7,4.7,0,0,1-1.838-2.541,12.234,12.234,0,0,1-.547-3.753v-9.735a11.622,11.622,0,0,1,.547-3.714,4.982,4.982,0,0,1,1.877-2.463,6.36,6.36,0,0,1,3.6-.86,6.447,6.447,0,0,1,3.6.86,4.982,4.982,0,0,1,1.877,2.463,11.8,11.8,0,0,1,.547,3.714v9.774a11.8,11.8,0,0,1-.547,3.714,5.061,5.061,0,0,1-1.838,2.541A6.177,6.177,0,0,1,289.06,272.966Zm0-1.759a3.724,3.724,0,0,0,2.346-.626,3.344,3.344,0,0,0,1.134-1.72,10.136,10.136,0,0,0,.313-2.58V255.646a10.137,10.137,0,0,0-.313-2.58,2.894,2.894,0,0,0-1.134-1.681,4,4,0,0,0-2.346-.586,4.05,4.05,0,0,0-2.385.586,3.023,3.023,0,0,0-1.134,1.681,10.135,10.135,0,0,0-.313,2.58V266.28a10.135,10.135,0,0,0,.313,2.58,2.991,2.991,0,0,0,1.134,1.72A3.848,3.848,0,0,0,289.06,271.207Z" transform="translate(-250.902 -248.883)" fill="#0d426a"/>
      <path id="XMLID_34_" d="M328.8,273V249.5h5.317a7.22,7.22,0,0,1,3.48.7,3.894,3.894,0,0,1,1.8,2.072,8.721,8.721,0,0,1,.547,3.206,10.125,10.125,0,0,1-.274,2.463,4.4,4.4,0,0,1-.977,1.955,3.309,3.309,0,0,1-1.955,1.056l3.6,12h-2.15l-3.44-11.533h-3.675v11.533H328.8Zm2.189-13.175h2.971a4.3,4.3,0,0,0,2.307-.508,2.709,2.709,0,0,0,1.173-1.447,7.062,7.062,0,0,0,.352-2.424,5.61,5.61,0,0,0-.743-3.245c-.508-.7-1.486-1.056-2.971-1.056h-3.049v8.679Z" transform="translate(-278.796 -249.187)" fill="#0d426a"/>
      <path id="XMLID_37_" d="M372.3,273V249.5h8.445v1.642h-6.216v8.836h5.2v1.642h-5.2V273Z" transform="translate(-305.289 -249.187)" fill="#479443"/>
      <path id="XMLID_39_" d="M411.26,272.966a6.63,6.63,0,0,1-3.675-.9,4.7,4.7,0,0,1-1.838-2.541,12.233,12.233,0,0,1-.547-3.753v-9.735a11.621,11.621,0,0,1,.547-3.714,4.982,4.982,0,0,1,1.877-2.463,6.36,6.36,0,0,1,3.6-.86,6.447,6.447,0,0,1,3.6.86,4.982,4.982,0,0,1,1.877,2.463,11.8,11.8,0,0,1,.547,3.714v9.774a11.8,11.8,0,0,1-.547,3.714,5.061,5.061,0,0,1-1.838,2.541A6.177,6.177,0,0,1,411.26,272.966Zm0-1.759a3.724,3.724,0,0,0,2.346-.626,3.343,3.343,0,0,0,1.134-1.72,10.136,10.136,0,0,0,.313-2.58V255.646a10.137,10.137,0,0,0-.313-2.58,2.894,2.894,0,0,0-1.134-1.681,4,4,0,0,0-2.346-.586,4.05,4.05,0,0,0-2.385.586,3.023,3.023,0,0,0-1.134,1.681,10.134,10.134,0,0,0-.313,2.58V266.28a10.134,10.134,0,0,0,.313,2.58,2.991,2.991,0,0,0,1.134,1.72A3.848,3.848,0,0,0,411.26,271.207Z" transform="translate(-325.327 -248.883)" fill="#479443"/>
      <path id="XMLID_43_" d="M451,273V249.5h5.317a7.22,7.22,0,0,1,3.48.7,3.894,3.894,0,0,1,1.8,2.072,8.721,8.721,0,0,1,.547,3.206,10.123,10.123,0,0,1-.274,2.463,4.4,4.4,0,0,1-.977,1.955,3.309,3.309,0,0,1-1.955,1.056l3.6,12h-2.15l-3.44-11.533h-3.675v11.533H451Zm2.189-13.175h2.971a4.3,4.3,0,0,0,2.307-.508,2.709,2.709,0,0,0,1.173-1.447,7.063,7.063,0,0,0,.352-2.424,5.61,5.61,0,0,0-.743-3.245c-.508-.7-1.486-1.056-2.971-1.056h-3.049v8.679Z" transform="translate(-353.221 -249.187)" fill="#479443"/>
      <path id="XMLID_47_" d="M495.317,273.058v-7.78L490,249.6h2.15l4.222,13.058,4.066-13.058h2.189l-5.161,15.678v7.78Z" transform="translate(-376.973 -249.248)" fill="#0d426a"/>
      <path id="XMLID_49_" d="M528.8,273l4.965-23.5h2.307l5,23.5h-2.189l-1.173-6.294h-5.591L530.95,273Zm3.636-7.9h5l-2.5-12.667Z" transform="translate(-400.604 -249.187)" fill="#0d426a"/>
    </g>
    <g id="XMLID_1_" transform="translate(58.24 234.4)">
      <path id="XMLID_122_" d="M58.342,280.822a8.191,8.191,0,0,1,.313-.9c.039-.117.117-.235.274-.2a.258.258,0,0,1,.235.274c.235,2.58,1.916,3.988,4.066,5a24.259,24.259,0,0,0,6.334,1.759,53.226,53.226,0,0,0,6.607.626,44.777,44.777,0,0,0,5.122-.078,41.36,41.36,0,0,0,11.494-2.268,30.717,30.717,0,0,0,8.171-4.261,11.272,11.272,0,0,0,4.144-5.2,5.709,5.709,0,0,0,.391-3.128,3.044,3.044,0,0,0-.586-1.368c-.078-.117-.2-.235-.039-.391s.274,0,.352.078a4.008,4.008,0,0,1,1.134,2.5,9.786,9.786,0,0,1-2.385,7.037,19.873,19.873,0,0,1-4.379,3.91,35.6,35.6,0,0,1-13.879,5.591,49.7,49.7,0,0,1-6.373.743,44.206,44.206,0,0,1-12-.9,17.237,17.237,0,0,1-4.77-1.838,8.159,8.159,0,0,1-4.3-5.317A6.142,6.142,0,0,1,58.342,280.822Z" transform="translate(-58.24 -256.465)" fill="#0d426a"/>
      <path id="XMLID_119_" d="M121.955,234.4c.7.117,1.447.117,2.15.2a37.657,37.657,0,0,1,7.819,1.368c.274.078.313.156.117.391-1.251,1.525-2.463,3.089-3.675,4.652a.5.5,0,0,1-.547.2,27.588,27.588,0,0,0-5.4-.743,32.738,32.738,0,0,0-4.379-.039c-.586.039-1.134.078-1.681.117-.274.039-.391-.078-.43-.352-.313-1.72-.626-3.44-.977-5.122-.078-.313,0-.43.352-.43.821-.039,1.642-.117,2.463-.2C119.14,234.4,120.548,234.4,121.955,234.4Z" transform="translate(-92.766 -234.4)" fill="#0d426a"/>
      <path id="XMLID_113_" d="M87.425,235.192c.274-.039.313.156.352.352.274,1.407.547,2.815.782,4.222a7.215,7.215,0,0,0,.156.9c.117.352-.039.469-.352.469-.86.117-1.72.2-2.541.313a22.851,22.851,0,0,0-7.194,1.955c-.2.117-.352.039-.547-.078-1.564-.86-3.167-1.72-4.731-2.619-.586-.313-1.173-.665-1.8-.977-.117-.078-.313-.117-.352-.235,0-.156.2-.2.352-.274a25.473,25.473,0,0,1,4.887-2.072,42.162,42.162,0,0,1,6.529-1.368Q85.2,235.427,87.425,235.192Z" transform="translate(-66.133 -234.879)" fill="#0d426a"/>
      <path id="XMLID_110_" d="M72.369,256.284c-1.056.352-2.072.7-3.128,1.095a.543.543,0,0,1-.352,0A13.229,13.229,0,0,1,64,255.15a6.1,6.1,0,0,1-1.642-1.955,3.684,3.684,0,0,1,.7-4.3,8.433,8.433,0,0,1,1.642-1.486.419.419,0,0,1,.547-.039c2.189,1.212,4.34,2.385,6.529,3.6.43.235.43.235.039.508a4.343,4.343,0,0,0-1.251,1.134,1.762,1.762,0,0,0-.039,2.189,3.6,3.6,0,0,0,1.368,1.173c.156.078.352.2.508.274A.038.038,0,0,0,72.369,256.284Z" transform="translate(-60.5 -242.248)" fill="#0d426a"/>
      <path id="XMLID_107_" d="M155.491,248.454h-1.955c-.2,0-.274-.039-.156-.235a1.8,1.8,0,0,0-.508-2.385,6.228,6.228,0,0,0-2.111-1.173c-.274-.117-.391-.2-.156-.469,1.251-1.525,2.463-3.089,3.675-4.652.117-.117.2-.2.391-.156a10.281,10.281,0,0,1,4.379,2.737,3.8,3.8,0,0,1,.977,3.128,3.409,3.409,0,0,1-.9,1.642l-.586.586A2.972,2.972,0,0,1,155.491,248.454Z" transform="translate(-114.417 -237.429)" fill="#0d426a"/>
      <path id="XMLID_104_" d="M83.2,267.853c.782-.274,1.564-.508,2.307-.821a1.939,1.939,0,0,1,1.407-.039,19.847,19.847,0,0,0,4.809.7c1.29.078,2.58.117,3.87.078a41.543,41.543,0,0,0,13.1-2.268,13.174,13.174,0,0,0,2.7-1.29.66.66,0,0,1,.391-.117c.977,0,1.955,0,2.893.039a.421.421,0,0,1,.313.078,1.143,1.143,0,0,1-.469.274,42.611,42.611,0,0,1-8.406,2.854,53.569,53.569,0,0,1-7.9,1.251,56.139,56.139,0,0,1-6.764.235,42.509,42.509,0,0,1-8.015-.782C83.4,267.97,83.317,268.01,83.2,267.853Z" transform="translate(-73.442 -252.488)" fill="#0d426a"/>
      <path id="XMLID_101_" d="M122.239,259.482a1.227,1.227,0,0,1-.626-.235,19.392,19.392,0,0,1-4.34-4.418,17.711,17.711,0,0,1-1.173-1.8c-.235-.391-.156-.508.313-.547.7-.078,1.447-.117,2.15-.2a.614.614,0,0,1,.586.274,21.521,21.521,0,0,0,7.311,5.513c.117.039.235.078.235.235,0,.117-.117.117-.235.156a37.69,37.69,0,0,1-4.144,1.017Z" transform="translate(-93.401 -245.29)" fill="#479443"/>
      <path id="XMLID_45_" d="M108.85,260.927h-1.8c-.43,0-.547-.117-.626-.547a22.92,22.92,0,0,1,0-5.669c.156-1.095.039-.938,1.173-1.095h.078c.938-.117.9-.117,1.173.782a14.892,14.892,0,0,0,3.01,5.434c.156.2.313.352.469.547.078.078.2.156.156.274s-.156.117-.274.117A19.374,19.374,0,0,1,108.85,260.927Z" transform="translate(-87.48 -246.07)" fill="#479443"/>
      <path id="XMLID_42_" d="M137.585,255.243a1.525,1.525,0,0,1-1.681,1.642,17.9,17.9,0,0,1-7.272-3.206c-.508-.352-.977-.743-1.447-1.095-.078-.078-.235-.117-.2-.274s.2-.117.313-.117a28.551,28.551,0,0,1,7.7,1.016,5.376,5.376,0,0,1,1.877.977A1.539,1.539,0,0,1,137.585,255.243Z" transform="translate(-100.108 -245.234)" fill="#479443"/>
      <path id="XMLID_33_" d="M87.469,258.87a1.209,1.209,0,0,1,.391-1.056,4.639,4.639,0,0,1,1.29-1.016,14.841,14.841,0,0,1,3.6-1.368c.117-.039.2-.078.313,0s.039.2,0,.313a14.448,14.448,0,0,0-.821,5.473c0,.508-.078.586-.586.469a9.626,9.626,0,0,1-2.776-.9,3.2,3.2,0,0,1-1.056-.86A1.254,1.254,0,0,1,87.469,258.87Z" transform="translate(-76.029 -247.18)" fill="#479443"/>
      <path id="XMLID_4_" d="M69.724,279.951V274.79a2.188,2.188,0,0,0-2.659-2.229,1.545,1.545,0,0,0-1.29,1.134,7.485,7.485,0,0,0-.156,2.463v2.15a.981.981,0,0,1-.274-.156,5.806,5.806,0,0,1-3.206-4.574,38.252,38.252,0,0,1-.2-7.624c0-.078,0-.117.039-.156.391.43.743.9,1.173,1.29a14.817,14.817,0,0,0,6.8,3.323,40.122,40.122,0,0,0,7.155.821,81.648,81.648,0,0,0,9.774-.313,43.429,43.429,0,0,0,13.488-3.284,19.7,19.7,0,0,0,5.473-3.48c.078-.039.117-.117.2-.156,1.016,2.424-.508,7.624-2.737,9.422v-.938a5.163,5.163,0,0,0-.078-1.095,1.8,1.8,0,0,0-2.346-1.486,2.2,2.2,0,0,0-1.72,2.307v3.831a.474.474,0,0,1-.274.469,38.791,38.791,0,0,1-10.4,3.48h-.2v-3.44a3.348,3.348,0,0,0-3.87-3.362,3.3,3.3,0,0,0-2.971,3.4v4.261C77.465,280.889,73.556,280.968,69.724,279.951Z" transform="translate(-60.435 -252.428)" fill="#0d426a"/>
    </g>
  </g>
</svg>
